{"asset":{"version":"2.0","generator":"babylon.js glTF exporter for 3dsmax 2017 v20211115.1"},"scene":0,"scenes":[{"nodes":[0]}],"nodes":[{"children":[1,6],"rotation":[0.7071068,0.0,0.0,0.7071067],"scale":[0.01,0.01,0.01],"name":"PIVOT_PANEL_N_LEFT"},{"children":[2],"translation":[-93.6,-6.000006,7.9],"rotation":[1.77635684E-15,0.0,0.0,1.0],"name":"NL1F"},{"children":[3,4,5],"translation":[-77.7000046,-185.7,258.3],"rotation":[1.77635684E-15,0.0,0.0,1.0],"name":"_Obj_NL1F_t"},{"mesh":0,"translation":[-16.1086578,174.973343,-267.0],"rotation":[1.776374E-15,-1.38779218E-17,0.00436336733,0.9999905],"scale":[4.0,1.0,4.0],"name":"_0000_NL1F_Slice_"},{"mesh":1,"translation":[-16.1522827,179.973175,-267.0],"rotation":[1.776374E-15,-1.38779218E-17,0.00436336733,0.9999905],"scale":[4.0,1.0,4.0],"name":"_0001_NL1F_Slice_"},{"mesh":2,"translation":[-16.1959229,184.972961,-267.0],"rotation":[1.776374E-15,-1.38779218E-17,0.00436336733,0.9999905],"scale":[4.0,1.0,4.0],"name":"_0002_NL1F_Slice_"},{"children":[7],"translation":[-92.9,4.199994,-13.7],"rotation":[1.77635684E-15,0.0,0.0,1.0],"name":"NL1B"},{"children":[8,9],"translation":[-78.4,-195.9,279.9],"rotation":[1.77635684E-15,0.0,0.0,1.0],"name":"_Obj_NL1B_t"},{"mesh":3,"translation":[2.30384827,196.9,-267.0],"rotation":[-1.38783172E-17,-1.7764246E-15,0.9999619,-0.008726442],"scale":[4.0,1.0,4.0],"name":"_0000_NL1B_Slice_"},{"mesh":4,"translation":[2.40000916,191.1,-267.0],"rotation":[-1.38783172E-17,-1.7764246E-15,0.9999619,-0.008726442],"scale":[4.0,1.0,4.0],"name":"_0001_NL1B_Slice_"}],"meshes":[{"primitives":[{"attributes":{"POSITION":1,"NORMAL":2,"TEXCOORD_0":3},"indices":0,"material":0}],"name":"_0000_NL1F_Slice_"},{"primitives":[{"attributes":{"POSITION":5,"NORMAL":6,"TEXCOORD_0":7},"indices":4,"material":1}],"name":"_0001_NL1F_Slice_"},{"primitives":[{"attributes":{"POSITION":9,"NORMAL":10,"TEXCOORD_0":11},"indices":8,"material":2}],"name":"_0002_NL1F_Slice_"},{"primitives":[{"attributes":{"POSITION":13,"NORMAL":14,"TEXCOORD_0":15},"indices":12,"material":3}],"name":"_0000_NL1B_Slice_"},{"primitives":[{"attributes":{"POSITION":17,"NORMAL":18,"TEXCOORD_0":19},"indices":16,"material":4}],"name":"_0001_NL1B_Slice_"}],"accessors":[{"bufferView":0,"componentType":5123,"count":6,"type":"SCALAR","name":"accessorIndices"},{"bufferView":1,"componentType":5126,"count":4,"max":[50.0,3.06161689E-15,50.0],"min":[-50.0,-3.06161689E-15,-50.0],"type":"VEC3","name":"accessorPositions"},{"bufferView":1,"byteOffset":48,"componentType":5126,"count":4,"type":"VEC3","name":"accessorNormals"},{"bufferView":2,"componentType":5126,"count":4,"type":"VEC2","name":"accessorUVs"},{"bufferView":0,"byteOffset":12,"componentType":5123,"count":6,"type":"SCALAR","name":"accessorIndices"},{"bufferView":1,"byteOffset":96,"componentType":5126,"count":4,"max":[50.0,3.06161689E-15,50.0],"min":[-50.0,-3.06161689E-15,-50.0],"type":"VEC3","name":"accessorPositions"},{"bufferView":1,"byteOffset":144,"componentType":5126,"count":4,"type":"VEC3","name":"accessorNormals"},{"bufferView":2,"byteOffset":32,"componentType":5126,"count":4,"type":"VEC2","name":"accessorUVs"},{"bufferView":0,"byteOffset":24,"componentType":5123,"count":6,"type":"SCALAR","name":"accessorIndices"},{"bufferView":1,"byteOffset":192,"componentType":5126,"count":4,"max":[50.0,3.06161689E-15,50.0],"min":[-50.0,-3.06161689E-15,-50.0],"type":"VEC3","name":"accessorPositions"},{"bufferView":1,"byteOffset":240,"componentType":5126,"count":4,"type":"VEC3","name":"accessorNormals"},{"bufferView":2,"byteOffset":64,"componentType":5126,"count":4,"type":"VEC2","name":"accessorUVs"},{"bufferView":0,"byteOffset":36,"componentType":5123,"count":6,"type":"SCALAR","name":"accessorIndices"},{"bufferView":1,"byteOffset":288,"componentType":5126,"count":4,"max":[50.0,3.06161689E-15,50.0],"min":[-50.0,-3.06161689E-15,-50.0],"type":"VEC3","name":"accessorPositions"},{"bufferView":1,"byteOffset":336,"componentType":5126,"count":4,"type":"VEC3","name":"accessorNormals"},{"bufferView":2,"byteOffset":96,"componentType":5126,"count":4,"type":"VEC2","name":"accessorUVs"},{"bufferView":0,"byteOffset":48,"componentType":5123,"count":6,"type":"SCALAR","name":"accessorIndices"},{"bufferView":1,"byteOffset":384,"componentType":5126,"count":4,"max":[50.0,3.06161689E-15,50.0],"min":[-50.0,-3.06161689E-15,-50.0],"type":"VEC3","name":"accessorPositions"},{"bufferView":1,"byteOffset":432,"componentType":5126,"count":4,"type":"VEC3","name":"accessorNormals"},{"bufferView":2,"byteOffset":128,"componentType":5126,"count":4,"type":"VEC2","name":"accessorUVs"}],"bufferViews":[{"buffer":0,"byteLength":60,"name":"bufferViewScalar"},{"buffer":0,"byteOffset":60,"byteLength":480,"byteStride":12,"name":"bufferViewFloatVec3"},{"buffer":0,"byteOffset":540,"byteLength":160,"byteStride":8,"name":"bufferViewFloatVec2"}],"buffers":[{"uri":"PIVOT_PANEL_N_LEFT.bin","byteLength":700}],"materials":[{"pbrMetallicRoughness":{"baseColorTexture":{"index":0},"metallicFactor":0.0,"roughnessFactor":0.7022211},"name":"_Mat_0000_NL1F_Slice__QuadPrefab_t"},{"pbrMetallicRoughness":{"baseColorTexture":{"index":1},"metallicFactor":0.0,"roughnessFactor":0.7022211},"name":"_Mat_0001_NL1F_Slice__QuadPrefab_t"},{"pbrMetallicRoughness":{"baseColorTexture":{"index":2},"metallicFactor":0.0,"roughnessFactor":0.7022211},"name":"_Mat_0002_NL1F_Slice__QuadPrefab_t"},{"pbrMetallicRoughness":{"baseColorTexture":{"index":3},"metallicFactor":0.0,"roughnessFactor":0.7022211},"name":"_Mat_0000_NL1B_Slice__QuadPrefab_t"},{"pbrMetallicRoughness":{"baseColorTexture":{"index":4},"metallicFactor":0.0,"roughnessFactor":0.7022211},"name":"_Mat_0001_NL1B_Slice__QuadPrefab_t"}],"textures":[{"sampler":0,"source":0,"name":"0000_NL1F_Slice_.png"},{"sampler":0,"source":1,"name":"0001_NL1F_Slice_.png"},{"sampler":0,"source":2,"name":"0002_NL1F_Slice_.png"},{"sampler":0,"source":3,"name":"0000_NL1B_Slice_.png"},{"sampler":0,"source":4,"name":"0001_NL1B_Slice_.png"}],"images":[{"uri":"0000_NL1F_Slice_.png"},{"uri":"0001_NL1F_Slice_.png"},{"uri":"0002_NL1F_Slice_.png"},{"uri":"0000_NL1B_Slice_.png"},{"uri":"0001_NL1B_Slice_.png"}],"samplers":[{"magFilter":9729,"minFilter":9987}]}