{"asset":{"version":"2.0","generator":"babylon.js glTF exporter for 3dsmax 2017 v20211115.1"},"scene":0,"scenes":[{"nodes":[0,5,10,14,17]}],"nodes":[{"children":[1],"translation":[-0.1043346,0.433000028,1.04841352],"rotation":[0.7071068,0.0,0.0,0.7071067],"scale":[0.01,0.01,0.01],"name":"NB"},{"children":[2,3,4],"translation":[17.5,-210.700027,276.8],"rotation":[1.77635684E-15,0.0,0.0,1.0],"name":"_Obj_NB_t"},{"mesh":0,"translation":[-16.3999977,204.399963,-267.0],"rotation":[1.776374E-15,-1.38779218E-17,0.00436336733,0.9999905],"scale":[4.0,1.0,4.0],"name":"_0005_NB_Slice_"},{"mesh":1,"translation":[-16.3999977,207.9,-267.0],"rotation":[1.776374E-15,-1.38779218E-17,0.00436336733,0.9999905],"scale":[4.0,1.0,4.0],"name":"_0006_NB_Slice_"},{"mesh":2,"translation":[-16.4140854,209.97197,-267.0],"rotation":[1.776374E-15,-1.38779218E-17,0.00436336733,0.9999905],"scale":[4.0,1.0,4.0],"name":"_0007_NB_Slice_"},{"children":[6],"translation":[-1.03633463,0.207000017,0.848413348],"rotation":[0.7071068,0.0,0.0,0.7071067],"scale":[0.01,0.01,0.01],"name":"NR1B"},{"children":[7,8,9],"translation":[110.7,-190.7,254.199982],"rotation":[1.77635684E-15,0.0,0.0,1.0],"name":"_Obj_NR1B_t"},{"mesh":3,"translation":[-16.1087837,200.026489,-267.0],"rotation":[6.938961E-18,-1.776374E-15,0.9999905,0.00436347956],"scale":[4.0,1.0,4.0],"name":"_0000_NR1B_Slice_"},{"mesh":4,"translation":[-16.15242,195.026688,-267.0],"rotation":[6.938961E-18,-1.776374E-15,0.9999905,0.00436347956],"scale":[4.0,1.0,4.0],"name":"_0001_NR1B_Slice_"},{"mesh":5,"translation":[-16.1960526,190.026886,-267.0],"rotation":[6.938961E-18,-1.776374E-15,0.9999905,0.00436347956],"scale":[4.0,1.0,4.0],"name":"_0002_NR1B_Slice_"},{"children":[11],"translation":[0.8476654,0.248000026,0.7984134],"rotation":[0.7071068,0.0,0.0,0.7071067],"scale":[0.01,0.01,0.01],"name":"NL1F"},{"children":[12,13],"translation":[-77.69999,-185.699982,258.299957],"rotation":[1.77635684E-15,0.0,0.0,1.0],"name":"_Obj_NL1F_t"},{"mesh":6,"translation":[-16.1522865,179.973175,-267.0],"rotation":[1.776374E-15,-1.38779218E-17,0.00436336733,0.9999905],"scale":[4.0,1.0,4.0],"name":"_0001_NL1F_Slice_"},{"mesh":7,"translation":[-16.195919,184.972961,-267.0],"rotation":[1.776374E-15,-1.38779218E-17,0.00436336733,0.9999905],"scale":[4.0,1.0,4.0],"name":"_0002_NL1F_Slice_"},{"children":[15],"translation":[-1.07833457,0.248000026,0.7984134],"rotation":[0.7071068,0.0,0.0,0.7071067],"scale":[0.01,0.01,0.01],"name":"NR1F"},{"children":[16],"translation":[114.899994,-185.699982,258.299957],"rotation":[1.77635684E-15,0.0,0.0,1.0],"name":"_Obj_NR1F_t"},{"mesh":8,"translation":[-16.195919,184.972961,-267.0],"rotation":[1.776374E-15,-1.38779218E-17,0.00436336733,0.9999905],"scale":[4.0,1.0,4.0],"name":"_0002_NR1F_Slice_"},{"children":[18],"translation":[0.8546654,0.464000016,0.9004134],"rotation":[0.7071068,0.0,0.0,0.7071067],"scale":[0.01,0.01,0.01],"name":"NL1B"},{"children":[19,20],"translation":[-78.39999,-195.9,279.9],"rotation":[1.77635684E-15,0.0,0.0,1.0],"name":"_Obj_NL1B_t"},{"mesh":9,"translation":[2.30384874,196.9,-267.0],"rotation":[-1.38783172E-17,-1.7764246E-15,0.9999619,-0.008726442],"scale":[4.0,1.0,4.0],"name":"_0000_NL1B_Slice_"},{"mesh":10,"translation":[2.30384874,195.107361,-267.0],"rotation":[-1.38783172E-17,-1.7764246E-15,0.9999619,-0.008726442],"scale":[4.0,1.0,4.0],"name":"_0001_NL1B_Slice_"}],"meshes":[{"primitives":[{"attributes":{"POSITION":1,"NORMAL":2,"TEXCOORD_0":3},"indices":0,"material":0}],"name":"_0005_NB_Slice_"},{"primitives":[{"attributes":{"POSITION":5,"NORMAL":6,"TEXCOORD_0":7},"indices":4,"material":1}],"name":"_0006_NB_Slice_"},{"primitives":[{"attributes":{"POSITION":9,"NORMAL":10,"TEXCOORD_0":11},"indices":8,"material":2}],"name":"_0007_NB_Slice_"},{"primitives":[{"attributes":{"POSITION":13,"NORMAL":14,"TEXCOORD_0":15},"indices":12,"material":3}],"name":"_0000_NR1B_Slice_"},{"primitives":[{"attributes":{"POSITION":17,"NORMAL":18,"TEXCOORD_0":19},"indices":16,"material":4}],"name":"_0001_NR1B_Slice_"},{"primitives":[{"attributes":{"POSITION":21,"NORMAL":22,"TEXCOORD_0":23},"indices":20,"material":5}],"name":"_0002_NR1B_Slice_"},{"primitives":[{"attributes":{"POSITION":25,"NORMAL":26,"TEXCOORD_0":27},"indices":24,"material":6}],"name":"_0001_NL1F_Slice_"},{"primitives":[{"attributes":{"POSITION":29,"NORMAL":30,"TEXCOORD_0":31},"indices":28,"material":7}],"name":"_0002_NL1F_Slice_"},{"primitives":[{"attributes":{"POSITION":33,"NORMAL":34,"TEXCOORD_0":35},"indices":32,"material":8}],"name":"_0002_NR1F_Slice_"},{"primitives":[{"attributes":{"POSITION":37,"NORMAL":38,"TEXCOORD_0":39},"indices":36,"material":9}],"name":"_0000_NL1B_Slice_"},{"primitives":[{"attributes":{"POSITION":41,"NORMAL":42,"TEXCOORD_0":43},"indices":40,"material":10}],"name":"_0001_NL1B_Slice_"}],"accessors":[{"bufferView":0,"componentType":5123,"count":6,"type":"SCALAR","name":"accessorIndices"},{"bufferView":1,"componentType":5126,"count":4,"max":[50.0,3.06161689E-15,50.0],"min":[-50.0,-3.06161689E-15,-50.0],"type":"VEC3","name":"accessorPositions"},{"bufferView":1,"byteOffset":48,"componentType":5126,"count":4,"type":"VEC3","name":"accessorNormals"},{"bufferView":2,"componentType":5126,"count":4,"type":"VEC2","name":"accessorUVs"},{"bufferView":0,"byteOffset":12,"componentType":5123,"count":6,"type":"SCALAR","name":"accessorIndices"},{"bufferView":1,"byteOffset":96,"componentType":5126,"count":4,"max":[50.0,3.06161689E-15,50.0],"min":[-50.0,-3.06161689E-15,-50.0],"type":"VEC3","name":"accessorPositions"},{"bufferView":1,"byteOffset":144,"componentType":5126,"count":4,"type":"VEC3","name":"accessorNormals"},{"bufferView":2,"byteOffset":32,"componentType":5126,"count":4,"type":"VEC2","name":"accessorUVs"},{"bufferView":0,"byteOffset":24,"componentType":5123,"count":6,"type":"SCALAR","name":"accessorIndices"},{"bufferView":1,"byteOffset":192,"componentType":5126,"count":4,"max":[50.0,3.06161689E-15,50.0],"min":[-50.0,-3.06161689E-15,-50.0],"type":"VEC3","name":"accessorPositions"},{"bufferView":1,"byteOffset":240,"componentType":5126,"count":4,"type":"VEC3","name":"accessorNormals"},{"bufferView":2,"byteOffset":64,"componentType":5126,"count":4,"type":"VEC2","name":"accessorUVs"},{"bufferView":0,"byteOffset":36,"componentType":5123,"count":6,"type":"SCALAR","name":"accessorIndices"},{"bufferView":1,"byteOffset":288,"componentType":5126,"count":4,"max":[50.0,3.06161689E-15,50.0],"min":[-50.0,-3.06161689E-15,-50.0],"type":"VEC3","name":"accessorPositions"},{"bufferView":1,"byteOffset":336,"componentType":5126,"count":4,"type":"VEC3","name":"accessorNormals"},{"bufferView":2,"byteOffset":96,"componentType":5126,"count":4,"type":"VEC2","name":"accessorUVs"},{"bufferView":0,"byteOffset":48,"componentType":5123,"count":6,"type":"SCALAR","name":"accessorIndices"},{"bufferView":1,"byteOffset":384,"componentType":5126,"count":4,"max":[50.0,3.06161689E-15,50.0],"min":[-50.0,-3.06161689E-15,-50.0],"type":"VEC3","name":"accessorPositions"},{"bufferView":1,"byteOffset":432,"componentType":5126,"count":4,"type":"VEC3","name":"accessorNormals"},{"bufferView":2,"byteOffset":128,"componentType":5126,"count":4,"type":"VEC2","name":"accessorUVs"},{"bufferView":0,"byteOffset":60,"componentType":5123,"count":6,"type":"SCALAR","name":"accessorIndices"},{"bufferView":1,"byteOffset":480,"componentType":5126,"count":4,"max":[50.0,3.06161689E-15,50.0],"min":[-50.0,-3.06161689E-15,-50.0],"type":"VEC3","name":"accessorPositions"},{"bufferView":1,"byteOffset":528,"componentType":5126,"count":4,"type":"VEC3","name":"accessorNormals"},{"bufferView":2,"byteOffset":160,"componentType":5126,"count":4,"type":"VEC2","name":"accessorUVs"},{"bufferView":0,"byteOffset":72,"componentType":5123,"count":6,"type":"SCALAR","name":"accessorIndices"},{"bufferView":1,"byteOffset":576,"componentType":5126,"count":4,"max":[50.0,3.06161689E-15,50.0],"min":[-50.0,-3.06161689E-15,-50.0],"type":"VEC3","name":"accessorPositions"},{"bufferView":1,"byteOffset":624,"componentType":5126,"count":4,"type":"VEC3","name":"accessorNormals"},{"bufferView":2,"byteOffset":192,"componentType":5126,"count":4,"type":"VEC2","name":"accessorUVs"},{"bufferView":0,"byteOffset":84,"componentType":5123,"count":6,"type":"SCALAR","name":"accessorIndices"},{"bufferView":1,"byteOffset":672,"componentType":5126,"count":4,"max":[50.0,3.06161689E-15,50.0],"min":[-50.0,-3.06161689E-15,-50.0],"type":"VEC3","name":"accessorPositions"},{"bufferView":1,"byteOffset":720,"componentType":5126,"count":4,"type":"VEC3","name":"accessorNormals"},{"bufferView":2,"byteOffset":224,"componentType":5126,"count":4,"type":"VEC2","name":"accessorUVs"},{"bufferView":0,"byteOffset":96,"componentType":5123,"count":6,"type":"SCALAR","name":"accessorIndices"},{"bufferView":1,"byteOffset":768,"componentType":5126,"count":4,"max":[50.0,3.06161689E-15,50.0],"min":[-50.0,-3.06161689E-15,-50.0],"type":"VEC3","name":"accessorPositions"},{"bufferView":1,"byteOffset":816,"componentType":5126,"count":4,"type":"VEC3","name":"accessorNormals"},{"bufferView":2,"byteOffset":256,"componentType":5126,"count":4,"type":"VEC2","name":"accessorUVs"},{"bufferView":0,"byteOffset":108,"componentType":5123,"count":6,"type":"SCALAR","name":"accessorIndices"},{"bufferView":1,"byteOffset":864,"componentType":5126,"count":4,"max":[50.0,3.06161689E-15,50.0],"min":[-50.0,-3.06161689E-15,-50.0],"type":"VEC3","name":"accessorPositions"},{"bufferView":1,"byteOffset":912,"componentType":5126,"count":4,"type":"VEC3","name":"accessorNormals"},{"bufferView":2,"byteOffset":288,"componentType":5126,"count":4,"type":"VEC2","name":"accessorUVs"},{"bufferView":0,"byteOffset":120,"componentType":5123,"count":6,"type":"SCALAR","name":"accessorIndices"},{"bufferView":1,"byteOffset":960,"componentType":5126,"count":4,"max":[50.0,3.06161689E-15,50.0],"min":[-50.0,-3.06161689E-15,-50.0],"type":"VEC3","name":"accessorPositions"},{"bufferView":1,"byteOffset":1008,"componentType":5126,"count":4,"type":"VEC3","name":"accessorNormals"},{"bufferView":2,"byteOffset":320,"componentType":5126,"count":4,"type":"VEC2","name":"accessorUVs"}],"bufferViews":[{"buffer":0,"byteLength":132,"name":"bufferViewScalar"},{"buffer":0,"byteOffset":132,"byteLength":1056,"byteStride":12,"name":"bufferViewFloatVec3"},{"buffer":0,"byteOffset":1188,"byteLength":352,"byteStride":8,"name":"bufferViewFloatVec2"}],"buffers":[{"uri":"NORTH_WALL_EXPORT.bin","byteLength":1540}],"materials":[{"pbrMetallicRoughness":{"baseColorTexture":{"index":0},"metallicFactor":0.0,"roughnessFactor":0.7022211},"name":"_Mat_0005_NB_Slice__QuadPrefab_t"},{"pbrMetallicRoughness":{"baseColorTexture":{"index":1},"metallicFactor":0.0,"roughnessFactor":0.7022211},"name":"_Mat_0006_NB_Slice__QuadPrefab_t"},{"pbrMetallicRoughness":{"baseColorTexture":{"index":2},"metallicFactor":0.0,"roughnessFactor":0.7022211},"name":"_Mat_0007_NB_Slice__QuadPrefab_t"},{"pbrMetallicRoughness":{"baseColorTexture":{"index":3},"metallicFactor":0.0,"roughnessFactor":0.7022211},"name":"_Mat_0000_NR1B_Slice__QuadPrefab_t"},{"pbrMetallicRoughness":{"baseColorTexture":{"index":4},"metallicFactor":0.0,"roughnessFactor":0.7022211},"name":"_Mat_0001_NR1B_Slice__QuadPrefab_t"},{"pbrMetallicRoughness":{"baseColorTexture":{"index":5},"metallicFactor":0.0,"roughnessFactor":0.7022211},"name":"_Mat_0002_NR1B_Slice__QuadPrefab_t"},{"pbrMetallicRoughness":{"baseColorTexture":{"index":6},"metallicFactor":0.0,"roughnessFactor":0.7022211},"name":"_Mat_0001_NL1F_Slice__QuadPrefab_t"},{"pbrMetallicRoughness":{"baseColorTexture":{"index":7},"metallicFactor":0.0,"roughnessFactor":0.7022211},"name":"_Mat_0002_NL1F_Slice__QuadPrefab_t"},{"pbrMetallicRoughness":{"baseColorTexture":{"index":8},"metallicFactor":0.0,"roughnessFactor":0.7022211},"name":"_Mat_0002_NR1F_Slice__QuadPrefab_t"},{"pbrMetallicRoughness":{"baseColorTexture":{"index":9},"metallicFactor":0.0,"roughnessFactor":0.7022211},"name":"_Mat_0000_NL1B_Slice__QuadPrefab_t"},{"pbrMetallicRoughness":{"baseColorTexture":{"index":10},"metallicFactor":0.0,"roughnessFactor":0.7022211},"name":"_Mat_0001_NL1B_Slice__QuadPrefab_t"}],"textures":[{"sampler":0,"source":0,"name":"0005_NB_Slice_.png"},{"sampler":0,"source":1,"name":"0006_NB_Slice_.png"},{"sampler":0,"source":2,"name":"0007_NB_Slice_.png"},{"sampler":0,"source":3,"name":"0000_NR1B_Slice_.png"},{"sampler":0,"source":4,"name":"0001_NR1B_Slice_.png"},{"sampler":0,"source":5,"name":"0002_NR1B_Slice_.png"},{"sampler":0,"source":6,"name":"0001_NL1F_Slice_.png"},{"sampler":0,"source":7,"name":"0002_NL1F_Slice_.png"},{"sampler":0,"source":8,"name":"0002_NR1F_Slice_.png"},{"sampler":0,"source":9,"name":"0000_NL1B_Slice_.png"},{"sampler":0,"source":10,"name":"0001_NL1B_Slice_.png"}],"images":[{"uri":"0005_NB_Slice_.png"},{"uri":"0006_NB_Slice_.png"},{"uri":"0007_NB_Slice_.png"},{"uri":"0000_NR1B_Slice_.png"},{"uri":"0001_NR1B_Slice_.png"},{"uri":"0002_NR1B_Slice_.png"},{"uri":"0001_NL1F_Slice_.png"},{"uri":"0002_NL1F_Slice_.png"},{"uri":"0002_NR1F_Slice_.png"},{"uri":"0000_NL1B_Slice_.png"},{"uri":"0001_NL1B_Slice_.png"}],"samplers":[{"magFilter":9729,"minFilter":9987}]}