{"asset":{"version":"2.0","generator":"babylon.js glTF exporter for 3dsmax 2017 v20211115.1"},"scene":0,"scenes":[{"nodes":[0]}],"nodes":[{"children":[1],"rotation":[0.7071068,0.0,0.0,0.7071067],"scale":[0.01,0.01,0.01],"name":"NR1B"},{"children":[2,3,4],"translation":[110.7,-190.7,254.2],"rotation":[1.77635684E-15,0.0,0.0,1.0],"name":"_Obj_NR1B_t"},{"mesh":0,"translation":[-16.1087875,200.026459,-267.0],"rotation":[-4.352024E-08,4.35202381E-08,0.9999905,0.00436347956],"scale":[4.0,1.0,4.0],"name":"_0000_NR1B_Slice_"},{"mesh":1,"translation":[-16.1524124,195.026688,-267.0],"rotation":[-4.352024E-08,4.35202381E-08,0.9999905,0.00436347956],"scale":[4.0,1.0,4.0],"name":"_0001_NR1B_Slice_"},{"mesh":2,"translation":[-16.1960526,190.026886,-267.0],"rotation":[-4.352024E-08,4.35202381E-08,0.9999905,0.00436347956],"scale":[4.0,1.0,4.0],"name":"_0002_NR1B_Slice_"}],"meshes":[{"primitives":[{"attributes":{"POSITION":1,"NORMAL":2,"TEXCOORD_0":3},"indices":0,"material":0}],"name":"_0000_NR1B_Slice_"},{"primitives":[{"attributes":{"POSITION":5,"NORMAL":6,"TEXCOORD_0":7},"indices":4,"material":1}],"name":"_0001_NR1B_Slice_"},{"primitives":[{"attributes":{"POSITION":9,"NORMAL":10,"TEXCOORD_0":11},"indices":8,"material":2}],"name":"_0002_NR1B_Slice_"}],"accessors":[{"bufferView":0,"componentType":5123,"count":6,"type":"SCALAR","name":"accessorIndices"},{"bufferView":1,"componentType":5126,"count":4,"max":[50.0,3.06161689E-15,50.0],"min":[-50.0,-3.06161689E-15,-50.0],"type":"VEC3","name":"accessorPositions"},{"bufferView":1,"byteOffset":48,"componentType":5126,"count":4,"type":"VEC3","name":"accessorNormals"},{"bufferView":2,"componentType":5126,"count":4,"type":"VEC2","name":"accessorUVs"},{"bufferView":0,"byteOffset":12,"componentType":5123,"count":6,"type":"SCALAR","name":"accessorIndices"},{"bufferView":1,"byteOffset":96,"componentType":5126,"count":4,"max":[50.0,3.06161689E-15,50.0],"min":[-50.0,-3.06161689E-15,-50.0],"type":"VEC3","name":"accessorPositions"},{"bufferView":1,"byteOffset":144,"componentType":5126,"count":4,"type":"VEC3","name":"accessorNormals"},{"bufferView":2,"byteOffset":32,"componentType":5126,"count":4,"type":"VEC2","name":"accessorUVs"},{"bufferView":0,"byteOffset":24,"componentType":5123,"count":6,"type":"SCALAR","name":"accessorIndices"},{"bufferView":1,"byteOffset":192,"componentType":5126,"count":4,"max":[50.0,3.06161689E-15,50.0],"min":[-50.0,-3.06161689E-15,-50.0],"type":"VEC3","name":"accessorPositions"},{"bufferView":1,"byteOffset":240,"componentType":5126,"count":4,"type":"VEC3","name":"accessorNormals"},{"bufferView":2,"byteOffset":64,"componentType":5126,"count":4,"type":"VEC2","name":"accessorUVs"}],"bufferViews":[{"buffer":0,"byteLength":36,"name":"bufferViewScalar"},{"buffer":0,"byteOffset":36,"byteLength":288,"byteStride":12,"name":"bufferViewFloatVec3"},{"buffer":0,"byteOffset":324,"byteLength":96,"byteStride":8,"name":"bufferViewFloatVec2"}],"buffers":[{"uri":"NR1B.bin","byteLength":420}],"materials":[{"pbrMetallicRoughness":{"baseColorTexture":{"index":0},"metallicFactor":0.0,"roughnessFactor":0.7022211},"name":"_Mat_0000_NR1B_Slice__QuadPrefab_t"},{"pbrMetallicRoughness":{"baseColorTexture":{"index":1},"metallicFactor":0.0,"roughnessFactor":0.7022211},"name":"_Mat_0001_NR1B_Slice__QuadPrefab_t"},{"pbrMetallicRoughness":{"baseColorTexture":{"index":2},"metallicFactor":0.0,"roughnessFactor":0.7022211},"name":"_Mat_0002_NR1B_Slice__QuadPrefab_t"}],"textures":[{"sampler":0,"source":0,"name":"0000_NR1B_Slice_.png"},{"sampler":0,"source":1,"name":"0001_NR1B_Slice_.png"},{"sampler":0,"source":2,"name":"0002_NR1B_Slice_.png"}],"images":[{"uri":"0000_NR1B_Slice_.png"},{"uri":"0001_NR1B_Slice_.png"},{"uri":"0002_NR1B_Slice_.png"}],"samplers":[{"magFilter":9729,"minFilter":9987}]}