{"asset":{"version":"2.0","generator":"babylon.js glTF exporter for 3dsmax 2017 v20211115.1"},"scene":0,"scenes":[{"nodes":[0]}],"nodes":[{"children":[1],"rotation":[0.7071068,0.0,0.0,0.7071067],"scale":[0.01,0.01,0.01],"name":"NL1F"},{"children":[2,3,4],"translation":[-77.7000046,-185.699966,258.299957],"rotation":[1.77635684E-15,0.0,0.0,1.0],"name":"_Obj_NL1F_t"},{"mesh":0,"translation":[-16.10865,174.973312,-267.0],"rotation":[2.66456088E-15,-2.00051778E-17,0.00436336733,0.9999905],"scale":[4.0,1.0,4.0],"name":"_0000_NL1F_Slice_"},{"mesh":1,"translation":[-16.1522675,179.973145,-267.0],"rotation":[2.66456088E-15,-2.00051778E-17,0.00436336733,0.9999905],"scale":[4.0,1.0,4.0],"name":"_0001_NL1F_Slice_"},{"mesh":2,"translation":[-16.1958923,184.972931,-267.0],"rotation":[2.66456088E-15,-2.00051778E-17,0.00436336733,0.9999905],"scale":[4.0,1.0,4.0],"name":"_0002_NL1F_Slice_"}],"meshes":[{"primitives":[{"attributes":{"POSITION":1,"NORMAL":2,"TEXCOORD_0":3},"indices":0,"material":0}],"name":"_0000_NL1F_Slice_"},{"primitives":[{"attributes":{"POSITION":5,"NORMAL":6,"TEXCOORD_0":7},"indices":4,"material":1}],"name":"_0001_NL1F_Slice_"},{"primitives":[{"attributes":{"POSITION":9,"NORMAL":10,"TEXCOORD_0":11},"indices":8,"material":2}],"name":"_0002_NL1F_Slice_"}],"accessors":[{"bufferView":0,"componentType":5123,"count":6,"type":"SCALAR","name":"accessorIndices"},{"bufferView":1,"componentType":5126,"count":4,"max":[50.0,3.06161689E-15,50.0],"min":[-50.0,-3.06161689E-15,-50.0],"type":"VEC3","name":"accessorPositions"},{"bufferView":1,"byteOffset":48,"componentType":5126,"count":4,"type":"VEC3","name":"accessorNormals"},{"bufferView":2,"componentType":5126,"count":4,"type":"VEC2","name":"accessorUVs"},{"bufferView":0,"byteOffset":12,"componentType":5123,"count":6,"type":"SCALAR","name":"accessorIndices"},{"bufferView":1,"byteOffset":96,"componentType":5126,"count":4,"max":[50.0,3.06161689E-15,50.0],"min":[-50.0,-3.06161689E-15,-50.0],"type":"VEC3","name":"accessorPositions"},{"bufferView":1,"byteOffset":144,"componentType":5126,"count":4,"type":"VEC3","name":"accessorNormals"},{"bufferView":2,"byteOffset":32,"componentType":5126,"count":4,"type":"VEC2","name":"accessorUVs"},{"bufferView":0,"byteOffset":24,"componentType":5123,"count":6,"type":"SCALAR","name":"accessorIndices"},{"bufferView":1,"byteOffset":192,"componentType":5126,"count":4,"max":[50.0,3.06161689E-15,50.0],"min":[-50.0,-3.06161689E-15,-50.0],"type":"VEC3","name":"accessorPositions"},{"bufferView":1,"byteOffset":240,"componentType":5126,"count":4,"type":"VEC3","name":"accessorNormals"},{"bufferView":2,"byteOffset":64,"componentType":5126,"count":4,"type":"VEC2","name":"accessorUVs"}],"bufferViews":[{"buffer":0,"byteLength":36,"name":"bufferViewScalar"},{"buffer":0,"byteOffset":36,"byteLength":288,"byteStride":12,"name":"bufferViewFloatVec3"},{"buffer":0,"byteOffset":324,"byteLength":96,"byteStride":8,"name":"bufferViewFloatVec2"}],"buffers":[{"uri":"NL1F.bin","byteLength":420}],"materials":[{"pbrMetallicRoughness":{"baseColorTexture":{"index":0},"metallicFactor":0.0,"roughnessFactor":0.7022211},"name":"_Mat_0000_NL1F_Slice__QuadPrefab_t"},{"pbrMetallicRoughness":{"baseColorTexture":{"index":1},"metallicFactor":0.0,"roughnessFactor":0.7022211},"name":"_Mat_0001_NL1F_Slice__QuadPrefab_t"},{"pbrMetallicRoughness":{"baseColorTexture":{"index":2},"metallicFactor":0.0,"roughnessFactor":0.7022211},"name":"_Mat_0002_NL1F_Slice__QuadPrefab_t"}],"textures":[{"sampler":0,"source":0,"name":"0000_NL1F_Slice_.png"},{"sampler":0,"source":1,"name":"0001_NL1F_Slice_.png"},{"sampler":0,"source":2,"name":"0002_NL1F_Slice_.png"}],"images":[{"uri":"0000_NL1F_Slice_.png"},{"uri":"0001_NL1F_Slice_.png"},{"uri":"0002_NL1F_Slice_.png"}],"samplers":[{"magFilter":9729,"minFilter":9987}]}